<?xml version="1.0" encoding="UTF-8" standalone="no"?>
<svg
   xmlns:dc="http://purl.org/dc/elements/1.1/"
   xmlns:cc="http://creativecommons.org/ns#"
   xmlns:rdf="http://www.w3.org/1999/02/22-rdf-syntax-ns#"
   xmlns:svg="http://www.w3.org/2000/svg"
   xmlns="http://www.w3.org/2000/svg"
   xmlns:sodipodi="http://sodipodi.sourceforge.net/DTD/sodipodi-0.dtd"
   xmlns:inkscape="http://www.inkscape.org/namespaces/inkscape"
   width="575"
   height="575"
   viewBox="0 0 575 575"
   fill="none"
   version="1.1"
   id="svg27"
   sodipodi:docname="spot.svg"
   inkscape:version="1.0.1 (3bc2e813f5, 2020-09-07)">
  <metadata
     id="metadata31">
    <rdf:RDF>
      <cc:Work
         rdf:about="">
        <dc:format>image/svg+xml</dc:format>
        <dc:type
           rdf:resource="http://purl.org/dc/dcmitype/StillImage" />
      </cc:Work>
    </rdf:RDF>
  </metadata>
  <sodipodi:namedview
     pagecolor="#ffffff"
     bordercolor="#666666"
     borderopacity="1"
     objecttolerance="10"
     gridtolerance="10"
     guidetolerance="10"
     inkscape:pageopacity="0"
     inkscape:pageshadow="2"
     inkscape:window-width="1920"
     inkscape:window-height="1017"
     id="namedview29"
     showgrid="false"
     inkscape:zoom="1.4782609"
     inkscape:cx="261.61196"
     inkscape:cy="277.19909"
     inkscape:window-x="-8"
     inkscape:window-y="-8"
     inkscape:window-maximized="1"
     inkscape:current-layer="layer3"
     inkscape:document-rotation="0" />
  <defs
     id="defs25">
    <filter
       id="filter0_d_207_2"
       x="39.2269"
       y="25.9788"
       width="495.833"
       height="515.037"
       filterUnits="userSpaceOnUse"
       color-interpolation-filters="sRGB">
      <feFlood
         flood-opacity="0"
         result="BackgroundImageFix"
         id="feFlood10" />
      <feColorMatrix
         in="SourceAlpha"
         type="matrix"
         values="0 0 0 0 0 0 0 0 0 0 0 0 0 0 0 0 0 0 127 0"
         result="hardAlpha"
         id="feColorMatrix12" />
      <feOffset
         id="feOffset14" />
      <feGaussianBlur
         stdDeviation="35"
         id="feGaussianBlur16" />
      <feColorMatrix
         type="matrix"
         values="0 0 0 0 0 0 0 0 0 0 0 0 0 0 0 0 0 0 0.03 0"
         id="feColorMatrix18" />
      <feBlend
         mode="normal"
         in2="BackgroundImageFix"
         result="effect1_dropShadow_207_2"
         id="feBlend20" />
      <feBlend
         mode="normal"
         in="SourceGraphic"
         in2="effect1_dropShadow_207_2"
         result="shape"
         id="feBlend22" />
    </filter>
    <filter
       inkscape:collect="always"
       style="color-interpolation-filters:sRGB"
       id="filter1157"
       x="-0.16685282"
       width="1.3337056"
       y="-0.15795296"
       height="1.3159059">
      <feGaussianBlur
         inkscape:collect="always"
         stdDeviation="24.737742"
         id="feGaussianBlur1159" />
    </filter>
  </defs>
  <g
     inkscape:groupmode="layer"
     id="layer4"
     inkscape:label="призрак"
     style="display:inline;filter:url(#filter1157)">
    <path
       style="opacity:1;fill:#ffffff;fill-opacity:1;stroke:#000000;stroke-width:1px;stroke-linecap:butt;stroke-linejoin:miter;stroke-opacity:1"
       d="m 112.27084,241.49835 c -4.05883,-30.44118 -9.47059,-80.5 69.67647,-122.44118 79.14706,-41.941172 171.14706,-10.14706 171.14706,-10.14706 0,0 94.02941,23 97.41176,63.58824 3.38235,40.58824 9.47059,48.70588 2.70588,74.41176 -6.7647,25.70589 6.76471,80.50001 10.82353,92.67648 4.05883,12.17647 5.41177,60.88235 -27.05882,90.64706 -32.47059,29.7647 -64.26471,37.88235 -82.52941,42.61764 -18.26471,4.7353 -100.79412,-35.17647 -110.94118,-37.20588 -10.14706,-2.02941 -57.5,-4.73529 -67.64706,-2.70588 -10.14706,2.02941 -66.97059,-3.38235 -62.23529,-52.76471 4.73529,-49.38235 17.58823,-64.94117 12.17647,-85.23529 -5.41177,-20.29411 -13.52941,-53.44118 -13.52941,-53.44118 z"
       id="path856-5" />
  </g>
  <g
     inkscape:groupmode="layer"
     id="layer3"
     inkscape:label="основной"
     style="display:inline">
    <path
       style="opacity:1;fill:#ffffff;fill-opacity:1;stroke:#000000;stroke-width:1px;stroke-linecap:butt;stroke-linejoin:miter;stroke-opacity:0"
       d="m 112.27084,241.49835 c -4.05883,-30.44118 -9.47059,-80.5 69.67647,-122.44118 79.14706,-41.941181 171.14706,-10.14706 171.14706,-10.14706 0,0 94.02941,23 97.41176,63.58824 3.38235,40.58824 9.47059,48.70588 2.70588,74.41176 -6.7647,25.70589 6.76471,80.5 10.82353,92.67648 4.05883,12.17647 5.41177,60.88235 -27.05882,90.64705 -32.47059,29.76471 -64.26471,37.88236 -82.52941,42.61765 -18.26471,4.7353 -100.79412,-35.17647 -110.94118,-37.20588 -10.14706,-2.02941 -57.5,-4.7353 -67.64706,-2.70588 -10.14706,2.02941 -66.97059,-3.38236 -62.23529,-52.76471 4.73529,-49.38235 17.58823,-64.94118 12.17647,-85.23529 -5.41177,-20.29412 -13.52941,-53.44118 -13.52941,-53.44118 z"
       id="path856" />
  </g>
  <g
     inkscape:groupmode="layer"
     id="layer1"
     inkscape:label="палка">
    <path
       style="fill:none;stroke:#fdd2a5;stroke-width:1px;stroke-linecap:butt;stroke-linejoin:miter;stroke-opacity:1"
       d="m 373.90956,450.23942 c 22.47776,-0.43007 46.024,-25.9 46.024,-25.9 v 0"
       id="path847" />
  </g>
  <g
     inkscape:groupmode="layer"
     id="layer2"
     inkscape:label="биг палка">
    <path
       style="fill:none;stroke:#fdd2a5;stroke-width:1px;stroke-linecap:butt;stroke-linejoin:miter;stroke-opacity:1"
       d="m 128.48133,262.50913 c 0,0 -36.201285,-100.66235 69.517,-139.64"
       id="path845" />
  </g>
</svg>
