<?xml version="1.0" standalone="no"?>
<svg viewBox="0 0 200 200" xmlns="http://www.w3.org/2000/svg">
  <path fill="#FFA94D" d="M44.6,-62.8C53.7,-54.8,54,-36.2,59.9,-19.2C65.8,-2.2,77.3,13.3,77.1,28.6C77,43.8,65.2,58.7,50.4,67.6C35.7,76.6,17.8,79.6,3.6,74.6C-10.6,69.6,-21.2,56.6,-32.8,46.7C-44.4,36.7,-57.1,29.7,-60.8,19.5C-64.5,9.3,-59.1,-4.1,-57.3,-21.3C-55.4,-38.6,-57,-59.7,-48.1,-67.7C-39.1,-75.7,-19.6,-70.6,-0.9,-69.4C17.8,-68.1,35.5,-70.8,44.6,-62.8Z" transform="translate(100 100)" />
</svg>
